<?xml version="1.0" encoding="UTF-8" standalone="no"?>
<svg
   xmlns:dc="http://purl.org/dc/elements/1.1/"
   xmlns:cc="http://creativecommons.org/ns#"
   xmlns:rdf="http://www.w3.org/1999/02/22-rdf-syntax-ns#"
   xmlns:svg="http://www.w3.org/2000/svg"
   xmlns="http://www.w3.org/2000/svg"
   xmlns:sodipodi="http://sodipodi.sourceforge.net/DTD/sodipodi-0.dtd"
   xmlns:inkscape="http://www.inkscape.org/namespaces/inkscape"
   width="166.70172"
   height="43.493366"
   viewBox="0 0 44.106498 11.50762"
   version="1.1"
   id="svg1086"
   inkscape:version="1.0.2 (e86c870879, 2021-01-15)"
   sodipodi:docname="logo.svg">
  <defs
     id="defs1080" />
  <sodipodi:namedview
     id="base"
     pagecolor="#3c3c3c"
     bordercolor="#666666"
     borderopacity="1.0"
     inkscape:pageopacity="0"
     inkscape:pageshadow="2"
     inkscape:zoom="4.3288312"
     inkscape:cx="59.18915"
     inkscape:cy="21.566961"
     inkscape:document-units="mm"
     inkscape:current-layer="layer1"
     inkscape:document-rotation="0"
     showgrid="false"
     lock-margins="true"
     units="px"
     fit-margin-top="5"
     fit-margin-left="5"
     fit-margin-right="5"
     fit-margin-bottom="5"
     inkscape:window-width="1920"
     inkscape:window-height="1017"
     inkscape:window-x="0"
     inkscape:window-y="30"
     inkscape:window-maximized="0"
     scale-x="1.9" />
  <metadata
     id="metadata1083">
    <rdf:RDF>
      <cc:Work
         rdf:about="">
        <dc:format>image/svg+xml</dc:format>
        <dc:type
           rdf:resource="http://purl.org/dc/dcmitype/StillImage" />
        <dc:title></dc:title>
      </cc:Work>
    </rdf:RDF>
  </metadata>
  <g
     inkscape:label="Layer 1"
     inkscape:groupmode="layer"
     id="layer1"
     transform="translate(54.064589,49.741519)">
    <text
       xml:space="preserve"
       style="font-style:normal;font-weight:normal;font-size:10.5833px;line-height:1.25;font-family:sans-serif;fill:#000000;fill-opacity:1;stroke:none;stroke-width:0.264583"
       x="21.629562"
       y="-40.920696"
       id="text846"><tspan
         sodipodi:role="line"
         id="tspan844"
         x="21.629562"
         y="-40.920696"
         style="stroke-width:0.264583" /></text>
    <path
       d="m -51.996605,-39.601971 q -0.248356,0 -0.417689,-0.158044 -0.158045,-0.169334 -0.158045,-0.41769 v -5.02356 q 0,-0.259645 0.158045,-0.41769 0.169333,-0.158044 0.417689,-0.158044 0.259645,0 0.417689,0.158044 0.158045,0.158045 0.158045,0.41769 v 5.02356 q 0,0.248356 -0.158045,0.41769 -0.158044,0.158044 -0.417689,0.158044 z m 0,-7.17974 q -0.3048,0 -0.530578,-0.214489 -0.21449,-0.225778 -0.21449,-0.530579 0,-0.3048 0.21449,-0.519289 0.225778,-0.225778 0.530578,-0.225778 0.3048,0 0.519289,0.225778 0.225778,0.214489 0.225778,0.519289 0,0.304801 -0.225778,0.530579 -0.214489,0.214489 -0.519289,0.214489 z"
       style="font-style:normal;font-variant:normal;font-weight:bold;font-stretch:normal;font-size:11.2889px;line-height:1.25;font-family:Comfortaa;-inkscape-font-specification:'Comfortaa, Bold';font-variant-ligatures:normal;font-variant-caps:normal;font-variant-numeric:normal;font-variant-east-asian:normal;fill:#26a5e4;fill-opacity:1;stroke:none;stroke-width:0.118868"
       id="path877" />
    <path
       d="m -48.700267,-39.590682 q -0.248356,0 -0.41769,-0.158044 -0.158044,-0.169334 -0.158044,-0.41769 v -5.034849 q 0,-0.259645 0.158044,-0.41769 0.169334,-0.158044 0.41769,-0.158044 0.259644,0 0.417689,0.158044 0.158045,0.158045 0.158045,0.41769 v 0.124178 q 0.349956,-0.349956 0.846667,-0.553156 0.496712,-0.203201 1.072446,-0.203201 0.778934,0 1.388534,0.338667 0.62089,0.327378 0.970846,0.970846 0.361245,0.643467 0.361245,1.580446 v 2.777069 q 0,0.248356 -0.169334,0.41769 -0.158044,0.158044 -0.4064,0.158044 -0.248356,0 -0.41769,-0.158044 -0.158044,-0.169334 -0.158044,-0.41769 v -2.777069 q 0,-0.959557 -0.51929,-1.399824 -0.508,-0.451556 -1.275645,-0.451556 -0.474134,0 -0.857957,0.191911 -0.383822,0.191912 -0.6096,0.51929 -0.225778,0.316089 -0.225778,0.733778 v 3.18347 q 0,0.248356 -0.158045,0.41769 -0.158045,0.158044 -0.417689,0.158044 z"
       style="font-style:normal;font-variant:normal;font-weight:bold;font-stretch:normal;font-size:11.2889px;line-height:1.25;font-family:Comfortaa;-inkscape-font-specification:'Comfortaa, Bold';font-variant-ligatures:normal;font-variant-caps:normal;font-variant-numeric:normal;font-variant-east-asian:normal;fill:#26a5e4;fill-opacity:1;stroke:none;stroke-width:0.118868"
       id="path879" />
    <path
       d="m -41.001246,-39.590682 q -0.248356,0 -0.41769,-0.158044 -0.158044,-0.169334 -0.158044,-0.41769 v -5.034849 q 0,-0.259645 0.158044,-0.41769 0.169334,-0.158044 0.41769,-0.158044 0.259644,0 0.417689,0.158044 0.158045,0.158045 0.158045,0.41769 v 0.124178 q 0.349955,-0.349956 0.846667,-0.553156 0.496712,-0.203201 1.072446,-0.203201 0.778934,0 1.388534,0.338667 0.62089,0.327378 0.970846,0.970846 0.361245,0.643467 0.361245,1.580446 v 2.777069 q 0,0.248356 -0.169334,0.41769 -0.158045,0.158044 -0.4064,0.158044 -0.248356,0 -0.41769,-0.158044 -0.158044,-0.169334 -0.158044,-0.41769 v -2.777069 q 0,-0.959557 -0.51929,-1.399824 -0.508,-0.451556 -1.275645,-0.451556 -0.474134,0 -0.857957,0.191911 -0.383822,0.191912 -0.6096,0.51929 -0.225778,0.316089 -0.225778,0.733778 v 3.18347 q 0,0.248356 -0.158045,0.41769 -0.158045,0.158044 -0.417689,0.158044 z"
       style="font-style:normal;font-variant:normal;font-weight:bold;font-stretch:normal;font-size:11.2889px;line-height:1.25;font-family:Comfortaa;-inkscape-font-specification:'Comfortaa, Bold';font-variant-ligatures:normal;font-variant-caps:normal;font-variant-numeric:normal;font-variant-east-asian:normal;fill:#26a5e4;fill-opacity:1;stroke:none;stroke-width:0.118868"
       id="path881" />
    <path
       d="m -31.078313,-39.556815 q -0.914401,0 -1.614312,-0.395112 -0.699912,-0.4064 -1.106313,-1.106312 -0.395111,-0.711201 -0.395111,-1.625601 0,-0.92569 0.395111,-1.625602 0.406401,-0.711201 1.106313,-1.106312 0.699911,-0.406401 1.614312,-0.406401 0.903112,0 1.603024,0.406401 0.699912,0.395111 1.095024,1.106312 0.4064,0.699912 0.4064,1.625602 0,0.9144 -0.395112,1.625601 -0.395111,0.699912 -1.095023,1.106312 -0.699912,0.395112 -1.614313,0.395112 z m 0,-1.016001 q 0.587023,0 1.038579,-0.270934 0.451556,-0.270933 0.699912,-0.745067 0.259645,-0.474134 0.259645,-1.095023 0,-0.62089 -0.259645,-1.095024 -0.248356,-0.485423 -0.699912,-0.756356 -0.451556,-0.270934 -1.038579,-0.270934 -0.587022,0 -1.038578,0.270934 -0.451556,0.270933 -0.711201,0.756356 -0.259645,0.474134 -0.259645,1.095024 0,0.620889 0.259645,1.095023 0.259645,0.474134 0.711201,0.745067 0.451556,0.270934 1.038578,0.270934 z"
       style="font-style:normal;font-variant:normal;font-weight:bold;font-stretch:normal;font-size:11.2889px;line-height:1.25;font-family:Comfortaa;-inkscape-font-specification:'Comfortaa, Bold';font-variant-ligatures:normal;font-variant-caps:normal;font-variant-numeric:normal;font-variant-east-asian:normal;fill:#26a5e4;fill-opacity:1;stroke:none;stroke-width:0.118868"
       id="path883" />
    <path
       d="m -25.806405,-39.601971 q -0.146756,0 -0.248356,-0.09031 -0.09031,-0.1016 -0.09031,-0.248356 v -8.139297 q 0,-0.146756 0.09031,-0.237067 0.1016,-0.1016 0.248356,-0.1016 0.225778,0 0.3048,0.169334 l 3.793071,7.495829 3.747915,-7.495829 q 0.1016,-0.169334 0.3048,-0.169334 0.146756,0 0.237067,0.1016 0.09031,0.09031 0.09031,0.237067 v 8.139297 q 0,0.146756 -0.09031,0.248356 -0.09031,0.09031 -0.237067,0.09031 -0.146756,0 -0.248356,-0.09031 -0.1016,-0.1016 -0.1016,-0.248356 v -6.920096 l -3.431826,6.98783 q -0.07902,0.158044 -0.293511,0.158044 -0.2032,0 -0.316089,-0.214489 l -3.420537,-6.829785 v 6.818496 q 0,0.146756 -0.1016,0.248356 -0.09031,0.09031 -0.237067,0.09031 z"
       style="font-style:normal;font-variant:normal;font-weight:300;font-stretch:normal;font-size:11.2889px;line-height:1.25;font-family:Comfortaa;-inkscape-font-specification:'Comfortaa, Light';font-variant-ligatures:normal;font-variant-caps:normal;font-variant-numeric:normal;font-variant-east-asian:normal;fill:#ae5fca;fill-opacity:1;stroke:none;stroke-width:0.118868"
       id="path885" />
    <path
       d="m -15.557506,-39.601971 q -0.187678,0 -0.2667,-0.167922 -0.07902,-0.167922 0.03951,-0.316089 l 1.837267,-2.281767 -1.619956,-2.143478 q -0.118534,-0.148167 -0.03951,-0.316089 0.07902,-0.1778 0.2667,-0.1778 0.128411,0 0.217311,0.0889 l 1.580445,2.103967 1.649589,-2.015067 q 0.148167,-0.1778 0.306211,-0.1778 0.197556,0 0.256822,0.1778 0.05927,0.167922 -0.05927,0.316089 l -1.748367,2.084211 1.758245,2.341034 q 0.128411,0.158045 0.0889,0.2667 -0.02963,0.108656 -0.118534,0.167922 -0.0889,0.04939 -0.148166,0.04939 -0.118534,0 -0.187678,-0.03951 -0.06915,-0.04939 -0.148167,-0.148166 l -1.659467,-2.202745 -1.797756,2.301522 q -0.05927,0.0889 -0.207433,0.0889 z"
       style="font-style:normal;font-variant:normal;font-weight:300;font-stretch:normal;font-size:9.87778px;line-height:1.25;font-family:Comfortaa;-inkscape-font-specification:'Comfortaa, Light';font-variant-ligatures:normal;font-variant-caps:normal;font-variant-numeric:normal;font-variant-east-asian:normal;fill:#ae5fca;fill-opacity:1;stroke:none;stroke-width:0.118868"
       id="path887" />
  </g>
  <g
     inkscape:groupmode="layer"
     id="layer2"
     inkscape:label="Layer 2"
     transform="translate(49.80746,14.026895)" />
</svg>
